<svg width="25" height="24" viewBox="0 0 25 24" fill="none" xmlns="http://www.w3.org/2000/svg">
<path d="M20.5086 18.33C21.9708 16.5446 22.7694 14.3078 22.7686 12C22.7686 6.48 18.2886 2 12.7686 2C7.24855 2 2.76855 6.48 2.76855 12C2.76855 17.52 7.24855 22 12.7686 22C14.0913 22.0006 15.401 21.7384 16.6216 21.2285C17.8422 20.7187 18.9493 19.9714 19.8786 19.03C19.9086 19 19.9286 18.97 19.9486 18.95C20.1486 18.75 20.3386 18.54 20.5086 18.33ZM12.7686 20C8.35855 20 4.76855 16.41 4.76855 12C4.76855 7.59 8.35855 4 12.7686 4C17.1786 4 20.7686 7.59 20.7686 12C20.7686 13.85 20.1386 15.54 19.0786 16.9L17.6486 15.47C18.3386 14.49 18.7486 13.3 18.7486 12.01C18.7486 8.7 16.0586 6.01 12.7486 6.01C9.43855 6.01 6.74855 8.7 6.74855 12.01C6.74855 15.32 9.43855 18.01 12.7486 18.01C14.0486 18.01 15.2586 17.59 16.2386 16.88L17.6586 18.3C16.2688 19.4053 14.5443 20.0048 12.7686 20ZM14.6886 12.51C14.8586 11.85 14.7086 11.13 14.1986 10.61L14.1786 10.59C13.4086 9.82 12.1786 9.81 11.3986 10.55C11.3886 10.56 11.3686 10.57 11.3486 10.59C10.5686 11.37 10.5686 12.64 11.3486 13.42L11.3686 13.44C11.8886 13.95 12.6186 14.11 13.2786 13.93L14.7886 15.44C14.1886 15.8 13.4986 16.02 12.7486 16.02C10.5386 16.02 8.74855 14.23 8.74855 12.02C8.74855 9.81 10.5386 8.02 12.7486 8.02C14.9586 8.02 16.7486 9.81 16.7486 12.02C16.7486 12.75 16.5386 13.43 16.1886 14.02L14.6886 12.51Z" fill="black"/>
</svg>
