<svg width="25" height="24" viewBox="0 0 25 24" fill="none" xmlns="http://www.w3.org/2000/svg">
<path d="M21.7686 7V19C21.7686 19.55 21.5729 20.021 21.1816 20.413C20.7902 20.805 20.3192 21.0007 19.7686 21H5.76855C5.21855 21 4.74789 20.8043 4.35655 20.413C3.96522 20.0217 3.76922 19.5507 3.76855 19V5C3.76855 4.45 3.96455 3.97933 4.35655 3.588C4.74855 3.19667 5.21922 3.00067 5.76855 3H17.7686L21.7686 7ZM12.7686 18C13.6019 18 14.3102 17.7083 14.8936 17.125C15.4769 16.5417 15.7686 15.8333 15.7686 15C15.7686 14.1667 15.4769 13.4583 14.8936 12.875C14.3102 12.2917 13.6019 12 12.7686 12C11.9352 12 11.2269 12.2917 10.6436 12.875C10.0602 13.4583 9.76855 14.1667 9.76855 15C9.76855 15.8333 10.0602 16.5417 10.6436 17.125C11.2269 17.7083 11.9352 18 12.7686 18ZM6.76855 10H15.7686V6H6.76855V10Z" fill="#373737"/>
</svg>
