<svg width="24" height="24" viewBox="0 0 24 24" fill="none" xmlns="http://www.w3.org/2000/svg">
<path fill-rule="evenodd" clip-rule="evenodd" d="M8 3.25C8.19891 3.25 8.38968 3.32902 8.53033 3.46967C8.67098 3.61032 8.75 3.80109 8.75 4V5.25H11.25V4C11.25 3.80109 11.329 3.61032 11.4697 3.46967C11.6103 3.32902 11.8011 3.25 12 3.25C12.1989 3.25 12.3897 3.32902 12.5303 3.46967C12.671 3.61032 12.75 3.80109 12.75 4V5.25H15.25V4C15.25 3.80109 15.329 3.61032 15.4697 3.46967C15.6103 3.32902 15.8011 3.25 16 3.25C16.1989 3.25 16.3897 3.32902 16.5303 3.46967C16.671 3.61032 16.75 3.80109 16.75 4V5.25H17C17.966 5.25 18.75 6.034 18.75 7V7.25H20C20.1989 7.25 20.3897 7.32902 20.5303 7.46967C20.671 7.61032 20.75 7.80109 20.75 8C20.75 8.19891 20.671 8.38968 20.5303 8.53033C20.3897 8.67098 20.1989 8.75 20 8.75H18.75V11.25H20C20.1989 11.25 20.3897 11.329 20.5303 11.4697C20.671 11.6103 20.75 11.8011 20.75 12C20.75 12.1989 20.671 12.3897 20.5303 12.5303C20.3897 12.671 20.1989 12.75 20 12.75H18.75V15.25H20C20.1989 15.25 20.3897 15.329 20.5303 15.4697C20.671 15.6103 20.75 15.8011 20.75 16C20.75 16.1989 20.671 16.3897 20.5303 16.5303C20.3897 16.671 20.1989 16.75 20 16.75H18.75V17C18.75 17.4641 18.5656 17.9092 18.2374 18.2374C17.9092 18.5656 17.4641 18.75 17 18.75H16.75V20C16.75 20.1989 16.671 20.3897 16.5303 20.5303C16.3897 20.671 16.1989 20.75 16 20.75C15.8011 20.75 15.6103 20.671 15.4697 20.5303C15.329 20.3897 15.25 20.1989 15.25 20V18.75H12.75V20C12.75 20.1989 12.671 20.3897 12.5303 20.5303C12.3897 20.671 12.1989 20.75 12 20.75C11.8011 20.75 11.6103 20.671 11.4697 20.5303C11.329 20.3897 11.25 20.1989 11.25 20V18.75H8.75V20C8.75 20.1989 8.67098 20.3897 8.53033 20.5303C8.38968 20.671 8.19891 20.75 8 20.75C7.80109 20.75 7.61032 20.671 7.46967 20.5303C7.32902 20.3897 7.25 20.1989 7.25 20V18.75H7C6.53587 18.75 6.09075 18.5656 5.76256 18.2374C5.43437 17.9092 5.25 17.4641 5.25 17V16.75H4C3.80109 16.75 3.61032 16.671 3.46967 16.5303C3.32902 16.3897 3.25 16.1989 3.25 16C3.25 15.8011 3.32902 15.6103 3.46967 15.4697C3.61032 15.329 3.80109 15.25 4 15.25H5.25V12.75H4C3.80109 12.75 3.61032 12.671 3.46967 12.5303C3.32902 12.3897 3.25 12.1989 3.25 12C3.25 11.8011 3.32902 11.6103 3.46967 11.4697C3.61032 11.329 3.80109 11.25 4 11.25H5.25V8.75H4C3.80109 8.75 3.61032 8.67098 3.46967 8.53033C3.32902 8.38968 3.25 8.19891 3.25 8C3.25 7.80109 3.32902 7.61032 3.46967 7.46967C3.61032 7.32902 3.80109 7.25 4 7.25H5.25V7C5.25 6.034 6.033 5.25 7 5.25H7.25V4C7.25 3.80109 7.32902 3.61032 7.46967 3.46967C7.61032 3.32902 7.80109 3.25 8 3.25ZM7 6.75C6.9337 6.75 6.87011 6.77634 6.82322 6.82322C6.77634 6.87011 6.75 6.9337 6.75 7V17C6.75 17.138 6.862 17.25 7 17.25H17C17.0663 17.25 17.1299 17.2237 17.1768 17.1768C17.2237 17.1299 17.25 17.0663 17.25 17V7C17.25 6.9337 17.2237 6.87011 17.1768 6.82322C17.1299 6.77634 17.0663 6.75 17 6.75H7Z" fill="#373737"/>
</svg>
