<svg width="25" height="24" viewBox="0 0 25 24" fill="none" xmlns="http://www.w3.org/2000/svg">
<path d="M5.76855 10C4.66855 10 3.76855 10.9 3.76855 12C3.76855 13.1 4.66855 14 5.76855 14C6.86855 14 7.76855 13.1 7.76855 12C7.76855 10.9 6.86855 10 5.76855 10ZM19.7686 10C18.6686 10 17.7686 10.9 17.7686 12C17.7686 13.1 18.6686 14 19.7686 14C20.8686 14 21.7686 13.1 21.7686 12C21.7686 10.9 20.8686 10 19.7686 10ZM12.7686 10C11.6686 10 10.7686 10.9 10.7686 12C10.7686 13.1 11.6686 14 12.7686 14C13.8686 14 14.7686 13.1 14.7686 12C14.7686 10.9 13.8686 10 12.7686 10Z" fill="#373737"/>
</svg>
