<svg width="28" height="14" viewBox="0 0 28 14" fill="none" xmlns="http://www.w3.org/2000/svg">
<path fill-rule="evenodd" clip-rule="evenodd" d="M4.60245 5.55644C4.74124 5.58101 4.8698 5.55194 4.98812 5.46922C5.10644 5.38651 5.17789 5.27575 5.20247 5.13695C5.22705 4.99815 5.19791 4.8695 5.11506 4.751C5.03222 4.6325 4.92146 4.56105 4.78279 4.53665C4.64412 4.51226 4.51556 4.54133 4.39711 4.62386C4.27866 4.7064 4.20722 4.81716 4.18277 4.95614C4.15832 5.09512 4.18745 5.22377 4.27017 5.34209C4.35289 5.46041 4.46365 5.53186 4.60245 5.55644ZM1.98182 5.07312L2.46148 5.16071C2.5221 4.81838 2.64518 4.49714 2.83073 4.197C3.01627 3.89686 3.26015 3.64114 3.56236 3.42986C3.86457 3.21858 4.18848 3.07734 4.53409 3.00615C4.8797 2.93495 5.22366 2.92966 5.56599 2.99028L5.65055 2.51273C5.24447 2.4397 4.83852 2.44428 4.43271 2.52649C4.02689 2.60869 3.64351 2.77583 3.28257 3.0279C2.92162 3.27997 2.63253 3.58256 2.4153 3.93567C2.19806 4.28878 2.05357 4.66793 1.98182 5.07312ZM-3.88176e-06 4.72483L0.477541 4.80939C0.584247 4.21043 0.800121 3.64885 1.12516 3.12466C1.4502 2.60047 1.87846 2.15274 2.40992 1.78145C2.94139 1.41016 3.50905 1.16164 4.11291 1.03587C4.71677 0.910101 5.31823 0.900258 5.9173 1.00634L6.00206 0.529071C5.35016 0.411386 4.69122 0.419555 4.02523 0.553581C3.35925 0.687605 2.72734 0.963191 2.1295 1.38034C1.53165 1.79748 1.0557 2.29615 0.701649 2.87635C0.347593 3.45654 0.113709 4.0727 -3.88176e-06 4.72483ZM7.76859 6.55343H10.7686V8.55343H7.76859C7.2163 8.55343 6.76859 9.00115 6.76859 9.55343C6.76859 10.1057 7.2163 10.5534 7.76859 10.5534H10.7686V12.5534H7.76859C6.11173 12.5534 4.76859 11.2103 4.76859 9.55343C4.76859 7.89658 6.11173 6.55343 7.76859 6.55343ZM11.7686 5.55343H10.7686H7.76859C5.55945 5.55343 3.76859 7.34429 3.76859 9.55343C3.76859 11.7626 5.55945 13.5534 7.76859 13.5534H10.7686H11.7686H23.7686C25.9777 13.5534 27.7686 11.7626 27.7686 9.55343C27.7686 7.34429 25.9777 5.55343 23.7686 5.55343H11.7686ZM23.7686 12.5534H11.7686V6.55343H23.7686C25.4254 6.55343 26.7686 7.89658 26.7686 9.55343C26.7686 11.2103 25.4254 12.5534 23.7686 12.5534Z" fill="#373737"/>
</svg>
